# xmcd
#
# Track frame offsets:
#	150
#	20595
#	32678
#	47388
#	61895
#	79788
#	93075
#	104313
#	121250
#	136270
#	153183
#	167448
#	177638
#	189413
#	202238
#
# Disc length: 3179
#
# Revision: 2
# Processed by: cddbd v1.5.1PL0 Copyright (c) Steve Scherf et al.
# Submitted via: EasyCDDAExtractor 6.0.0.1
# Normalized: r1:DSETVAR1
#
DISCID=ba0c690f
DTITLE=Various Artist - CDX Volume 36 July 1992
DYEAR=1992
DGENRE=Country
TTITLE0=Lionel Cartwright - Be My Angel
TTITLE1=Lee Greenwood - Before I'm Ever Over You
TTITLE2=Collin Raye - In This Life
TTITLE3=Radney Foster - Just Call Me Lonesome
TTITLE4=Suzy Bogguss - Letting Go
TTITLE5=Alan Jackson - Love's Got a Hold on You
TTITLE6=Hank Williams Jr. - Lying Jukebox
TTITLE7=The Statler Brothers - Nobody Lives Here Anymore
TTITLE8=Dwight Yoakam and Patty Loveless - Send a Message to My Heart
TTITLE9=Molly and the Haymakers - Swinging Doors
TTITLE10=Jeff Chance - Walk Softly on the Bridges
TTITLE11=Ricky Van Shelton - Wear My Ring Around Your Neck
TTITLE12=Chris Ledoux - Whatcha Gonna Do With a Cowboy
TTITLE13=Thrisa Yearwood - Wrong Side of Memphis
TTITLE14=Tim Mensy - Tim Mensey Interview
EXTD=
EXTT0=
EXTT1=
EXTT2=
EXTT3=
EXTT4=
EXTT5=
EXTT6=
EXTT7=
EXTT8=
EXTT9=
EXTT10=
EXTT11=
EXTT12=
EXTT13=
EXTT14=
PLAYORDER=
